REM DIRINDEX 1\2\5,1\2\6,1\2\7,1\2\8,1\3\9,1\3\10,1\3\11,1\4\12,1\4\13,1\4\14,1\4\15,1\4\16
REM DIRNAME cjc034,folder01,folder02,folder03,folder04,folder05,folder06,folder07,folder08,folder09,folder10,folder11,folder12,folder13,folder14,folder15
TITLE ""
FILE "1200_sec03_0801_0809.mp3" MP3
  TRACK 01 AUDIO
    TITLE "0:"
    INDEX 01 00:00:00
  TRACK 02 AUDIO
    TITLE "12:cjc034_06870"
    INDEX 01 00:00:21
  TRACK 03 AUDIO
    TITLE "0:"
    INDEX 01 00:01:54
  TRACK 04 AUDIO
    TITLE "13:cjc034_06871"
    INDEX 01 00:02:12
  TRACK 05 AUDIO
    TITLE "0:"
    INDEX 01 00:04:36
  TRACK 06 AUDIO
    TITLE "14:cjc034_06872"
    INDEX 01 00:04:72
  TRACK 07 AUDIO
    TITLE "0:"
    INDEX 01 00:06:28
  TRACK 08 AUDIO
    TITLE "15:cjc034_06873"
    INDEX 01 00:06:63
  TRACK 09 AUDIO
    TITLE "0:"
    INDEX 01 00:10:47
  TRACK 10 AUDIO
    TITLE "16:cjc034_06874"
    INDEX 01 00:12:09
  TRACK 11 AUDIO
    TITLE "0:"
    INDEX 01 00:16:69
  TRACK 12 AUDIO
    TITLE "12:cjc034_06875"
    INDEX 01 00:17:72
  TRACK 13 AUDIO
    TITLE "0:"
    INDEX 01 00:19:16
  TRACK 14 AUDIO
    TITLE "13:cjc034_06876"
    INDEX 01 00:19:48
  TRACK 15 AUDIO
    TITLE "0:"
    INDEX 01 00:20:57
  TRACK 16 AUDIO
    TITLE "14:cjc034_06877"
    INDEX 01 00:21:15
  TRACK 17 AUDIO
    TITLE "0:"
    INDEX 01 00:22:36
  TRACK 18 AUDIO
    TITLE "15:cjc034_06878"
    INDEX 01 00:22:72
  TRACK 19 AUDIO
    TITLE "0:"
    INDEX 01 00:28:31
  TRACK 20 AUDIO
    TITLE "12:cjc034_06879"
    INDEX 01 00:29:64
  TRACK 21 AUDIO
    TITLE "0:"
    INDEX 01 00:31:08
  TRACK 22 AUDIO
    TITLE "13:cjc034_06880"
    INDEX 01 00:31:41
  TRACK 23 AUDIO
    TITLE "0:"
    INDEX 01 00:33:54
  TRACK 24 AUDIO
    TITLE "14:cjc034_06881"
    INDEX 01 00:34:10
  TRACK 25 AUDIO
    TITLE "0:"
    INDEX 01 00:35:31
  TRACK 26 AUDIO
    TITLE "15:cjc034_06882"
    INDEX 01 00:35:63
  TRACK 27 AUDIO
    TITLE "0:"
    INDEX 01 00:40:07
  TRACK 28 AUDIO
    TITLE "12:cjc034_06883"
    INDEX 01 00:41:40
  TRACK 29 AUDIO
    TITLE "0:"
    INDEX 01 00:42:49
  TRACK 30 AUDIO
    TITLE "13:cjc034_06884"
    INDEX 01 00:43:09
  TRACK 31 AUDIO
    TITLE "0:"
    INDEX 01 00:44:07
  TRACK 32 AUDIO
    TITLE "14:cjc034_06885"
    INDEX 01 00:44:38
  TRACK 33 AUDIO
    TITLE "0:"
    INDEX 01 00:45:49
  TRACK 34 AUDIO
    TITLE "15:cjc034_06886"
    INDEX 01 00:46:07
  TRACK 35 AUDIO
    TITLE "0:"
    INDEX 01 00:50:07
  TRACK 36 AUDIO
    TITLE "12:cjc034_06887"
    INDEX 01 00:51:40
  TRACK 37 AUDIO
    TITLE "0:"
    INDEX 01 00:52:53
  TRACK 38 AUDIO
    TITLE "13:cjc034_06888"
    INDEX 01 00:53:09
  TRACK 39 AUDIO
    TITLE "0:"
    INDEX 01 00:55:24
  TRACK 40 AUDIO
    TITLE "14:cjc034_06889"
    INDEX 01 00:55:53
  TRACK 41 AUDIO
    TITLE "0:"
    INDEX 01 00:56:65
  TRACK 42 AUDIO
    TITLE "15:cjc034_06890"
    INDEX 01 00:57:21
  TRACK 43 AUDIO
    TITLE "0:"
    INDEX 01 01:01:48
  TRACK 44 AUDIO
    TITLE "12:cjc034_06891"
    INDEX 01 01:03:04
  TRACK 45 AUDIO
    TITLE "0:"
    INDEX 01 01:04:29
  TRACK 46 AUDIO
    TITLE "13:cjc034_06892"
    INDEX 01 01:04:64
  TRACK 47 AUDIO
    TITLE "0:"
    INDEX 01 01:05:68
  TRACK 48 AUDIO
    TITLE "14:cjc034_06893"
    INDEX 01 01:06:24
  TRACK 49 AUDIO
    TITLE "0:"
    INDEX 01 01:07:49
  TRACK 50 AUDIO
    TITLE "15:cjc034_06894"
    INDEX 01 01:08:11
  TRACK 51 AUDIO
    TITLE "0:"
    INDEX 01 01:11:39
  TRACK 52 AUDIO
    TITLE "12:cjc034_06895"
    INDEX 01 01:12:73
  TRACK 53 AUDIO
    TITLE "0:"
    INDEX 01 01:14:04
  TRACK 54 AUDIO
    TITLE "13:cjc034_06896"
    INDEX 01 01:14:37
  TRACK 55 AUDIO
    TITLE "0:"
    INDEX 01 01:15:33
  TRACK 56 AUDIO
    TITLE "14:cjc034_06897"
    INDEX 01 01:15:64
  TRACK 57 AUDIO
    TITLE "0:"
    INDEX 01 01:16:71
  TRACK 58 AUDIO
    TITLE "15:cjc034_06898"
    INDEX 01 01:17:28
  TRACK 59 AUDIO
    TITLE "0:"
    INDEX 01 01:21:37
  TRACK 60 AUDIO
    TITLE "12:cjc034_06899"
    INDEX 01 01:22:70
  TRACK 61 AUDIO
    TITLE "0:"
    INDEX 01 01:24:08
  TRACK 62 AUDIO
    TITLE "13:cjc034_06900"
    INDEX 01 01:24:39
  TRACK 63 AUDIO
    TITLE "0:"
    INDEX 01 01:28:72
  TRACK 64 AUDIO
    TITLE "14:cjc034_06901"
    INDEX 01 01:29:31
  TRACK 65 AUDIO
    TITLE "0:"
    INDEX 01 01:30:42
  TRACK 66 AUDIO
    TITLE "15:cjc034_06902"
    INDEX 01 01:31:02
  TRACK 67 AUDIO
    TITLE "0:"
    INDEX 01 01:33:38
  TRACK 68 AUDIO
    TITLE "12:cjc034_06903"
    INDEX 01 01:34:73
  TRACK 69 AUDIO
    TITLE "0:"
    INDEX 01 01:36:13
  TRACK 70 AUDIO
    TITLE "13:cjc034_06904"
    INDEX 01 01:36:47
  TRACK 71 AUDIO
    TITLE "0:"
    INDEX 01 01:40:54
  TRACK 72 AUDIO
    TITLE "14:cjc034_06905"
    INDEX 01 01:41:10
  TRACK 73 AUDIO
    TITLE "0:"
    INDEX 01 01:42:24
  TRACK 74 AUDIO
    TITLE "15:cjc034_06906"
    INDEX 01 01:42:59
  TRACK 75 AUDIO
    TITLE "0:"
    INDEX 01 01:46:08
